<svg width="46" height="31" viewBox="0 0 46 31" fill="none" xmlns="http://www.w3.org/2000/svg">
<path d="M22.4994 2.5C14.7684 2.5 8.5 8.76845 8.5 16.4994C8.5 24.2304 14.7684 30.5 22.4994 30.5C30.2304 30.5 36.5 24.2304 36.5 16.4994C36.5 8.76845 30.2304 2.5 22.4994 2.5ZM25.4138 24.1972C24.6932 24.4816 24.1196 24.6973 23.6893 24.8467C23.2603 24.996 22.7613 25.0707 22.1936 25.0707C21.3213 25.0707 20.6422 24.8573 20.1587 24.4319C19.6751 24.0064 19.4345 23.4671 19.4345 22.8117C19.4345 22.5569 19.4523 22.2961 19.4879 22.0307C19.5246 21.7652 19.5827 21.4665 19.6621 21.1311L20.564 17.9453C20.6434 17.6396 20.7121 17.3492 20.7667 17.079C20.8212 16.8064 20.8473 16.5563 20.8473 16.3287C20.8473 15.9234 20.7631 15.639 20.596 15.479C20.4265 15.319 20.1077 15.2407 19.6324 15.2407C19.4001 15.2407 19.1607 15.2751 18.9154 15.3474C18.6724 15.4221 18.4615 15.4896 18.2884 15.556L18.5267 14.5747C19.1169 14.3341 19.6822 14.1279 20.2215 13.9572C20.7607 13.7841 21.2704 13.6988 21.7504 13.6988C22.6167 13.6988 23.2852 13.9098 23.7557 14.327C24.2239 14.7453 24.4597 15.2893 24.4597 15.9578C24.4597 16.0964 24.4431 16.3406 24.4111 16.689C24.3791 17.0387 24.3187 17.3575 24.231 17.6502L23.3338 20.8265C23.2603 21.0813 23.1951 21.3729 23.1359 21.6988C23.0778 22.0247 23.0493 22.2736 23.0493 22.4407C23.0493 22.8627 23.143 23.1507 23.3326 23.3036C23.5199 23.4564 23.8481 23.5335 24.3127 23.5335C24.532 23.5335 24.7773 23.4944 25.0547 23.4185C25.3296 23.3427 25.5287 23.2751 25.6544 23.217L25.4138 24.1972ZM25.255 11.3047C24.8366 11.6935 24.3329 11.8879 23.7439 11.8879C23.156 11.8879 22.6487 11.6935 22.2268 11.3047C21.8073 10.916 21.5951 10.4431 21.5951 9.89081C21.5951 9.3397 21.8084 8.86563 22.2268 8.47333C22.6487 8.07985 23.156 7.8843 23.7439 7.8843C24.3329 7.8843 24.8378 8.07985 25.255 8.47333C25.6733 8.86563 25.8831 9.3397 25.8831 9.89081C25.8831 10.4443 25.6733 10.916 25.255 11.3047Z" fill="#A5ABB9"/>
</svg>
