<svg width="32" height="31" viewBox="0 0 32 31" fill="none" xmlns="http://www.w3.org/2000/svg">
<path opacity="0.5" d="M30.75 13.8H3.75V25.95C3.75 27.0241 4.1767 28.0543 4.93622 28.8138C5.69574 29.5733 6.72587 30 7.8 30H26.7C27.7741 30 28.8043 29.5733 29.5638 28.8138C30.3233 28.0543 30.75 27.0241 30.75 25.95V13.8ZM10.5 11.1C10.142 11.1 9.79858 10.9578 9.54541 10.7046C9.29223 10.4514 9.15 10.108 9.15 9.75V4.35C9.15 3.99196 9.29223 3.64858 9.54541 3.39541C9.79858 3.14223 10.142 3 10.5 3C10.858 3 11.2014 3.14223 11.4546 3.39541C11.7078 3.64858 11.85 3.99196 11.85 4.35V9.75C11.85 10.108 11.7078 10.4514 11.4546 10.7046C11.2014 10.9578 10.858 11.1 10.5 11.1ZM24 11.1C23.642 11.1 23.2986 10.9578 23.0454 10.7046C22.7922 10.4514 22.65 10.108 22.65 9.75V4.35C22.65 3.99196 22.7922 3.64858 23.0454 3.39541C23.2986 3.14223 23.642 3 24 3C24.358 3 24.7014 3.14223 24.9546 3.39541C25.2078 3.64858 25.35 3.99196 25.35 4.35V9.75C25.35 10.108 25.2078 10.4514 24.9546 10.7046C24.7014 10.9578 24.358 11.1 24 11.1Z" fill="#9BA1AF"/>
<path d="M26.7 6H25.35V10C25.35 10.3536 25.2078 10.6928 24.9546 10.9428C24.7014 11.1929 24.358 11.3333 24 11.3333C23.642 11.3333 23.2986 11.1929 23.0454 10.9428C22.7922 10.6928 22.65 10.3536 22.65 10V6H11.85V10C11.85 10.3536 11.7078 10.6928 11.4546 10.9428C11.2014 11.1929 10.858 11.3333 10.5 11.3333C10.142 11.3333 9.79858 11.1929 9.54541 10.9428C9.29223 10.6928 9.15 10.3536 9.15 10V6H7.8C6.72587 6 5.69574 6.42143 4.93622 7.17157C4.1767 7.92172 3.75 8.93913 3.75 10V14H30.75V10C30.75 8.93913 30.3233 7.92172 29.5638 7.17157C28.8043 6.42143 27.7741 6 26.7 6Z" fill="#A5ABB9"/>
<rect width="3" height="3" transform="matrix(1 0 0 -1 9.125 25.9092)" fill="#D9D9D9"/>
<rect width="3" height="3" transform="matrix(1 0 0 -1 9.125 19.0911)" fill="#D9D9D9"/>
<rect width="3" height="3" transform="matrix(1 0 0 -1 15.75 25.9092)" fill="#D9D9D9"/>
<rect width="3" height="3" transform="matrix(1 0 0 -1 15.75 19.0911)" fill="#D9D9D9"/>
<rect width="3" height="3" transform="matrix(1 0 0 -1 22.75 25.9092)" fill="#D9D9D9"/>
<rect width="3" height="3" transform="matrix(1 0 0 -1 22.75 19.0911)" fill="#D9D9D9"/>
</svg>
