<svg width="34" height="31" viewBox="0 0 34 31" fill="none" xmlns="http://www.w3.org/2000/svg">
<path d="M10.7632 0.500122C5.24403 0.500122 0.75293 3.95541 0.75293 8.19141C0.75293 11.9945 4.44784 15.272 9.34863 15.8054C9.48003 15.8209 9.59598 15.8982 9.66555 16.0141L11.142 18.7196L12.9662 15.8286C13.0281 15.7358 13.1208 15.6663 13.2368 15.6431C13.9016 15.5117 14.5431 15.3339 15.1461 15.1097C15.1693 15.0943 15.2002 15.0865 15.2234 15.0788C16.808 14.4759 18.1376 13.5715 19.0961 12.4661C19.1193 12.4352 19.1425 12.4042 19.1734 12.3733C20.2015 11.1597 20.7812 9.71421 20.7812 8.18369C20.7735 3.95541 16.2824 0.500122 10.7632 0.500122ZM11.1652 13.3705C11.1574 13.3937 11.1497 13.4246 11.142 13.4478C11.1342 13.471 11.1188 13.4942 11.1033 13.5173C11.0879 13.5405 11.0724 13.5637 11.0492 13.5792C10.9719 13.6565 10.8637 13.7029 10.7632 13.7029C10.6627 13.7029 10.5468 13.6565 10.4772 13.5792C10.4617 13.5637 10.4385 13.5405 10.4231 13.5173C10.4076 13.4942 10.3922 13.471 10.3844 13.4478C10.3767 13.4246 10.369 13.3937 10.3612 13.3705C10.3535 13.3473 10.3535 13.3164 10.3535 13.2932C10.3535 13.27 10.3535 13.2391 10.3612 13.2159C10.369 13.1927 10.3767 13.1618 10.3844 13.1386C10.3922 13.1154 10.4076 13.0922 10.4231 13.069C10.4385 13.0458 10.454 13.0226 10.4772 13.0072C10.5545 12.9299 10.655 12.8835 10.7632 12.8835C10.8714 12.8835 10.9796 12.9299 11.0492 13.0072C11.0647 13.0226 11.0879 13.0458 11.1033 13.069C11.1188 13.0922 11.1342 13.1154 11.142 13.1386C11.1497 13.1618 11.1574 13.1927 11.1652 13.2159C11.1729 13.2391 11.1729 13.27 11.1729 13.2932C11.1729 13.3164 11.1729 13.3473 11.1652 13.3705ZM12.572 8.72478C11.6985 9.28134 11.1729 10.2012 11.1729 11.1984V11.2138C11.1729 11.438 10.9874 11.6235 10.7632 11.6235C10.539 11.6235 10.3535 11.438 10.3535 11.2138V11.1984C10.3535 9.92292 11.0183 8.74024 12.1314 8.02909C12.8967 7.5421 13.3527 6.67635 13.3218 5.76421C13.2677 4.43466 12.1932 3.35247 10.8637 3.30609C10.1603 3.2829 9.4955 3.53026 8.98532 4.01725C8.47514 4.50423 8.19687 5.16128 8.19687 5.8647C8.19687 6.08887 8.01135 6.27439 7.78718 6.27439C7.56301 6.27439 7.37749 6.08887 7.37749 5.8647C7.37749 4.93711 7.74853 4.07136 8.4133 3.42977C9.07808 2.78819 9.95929 2.4558 10.8869 2.48672C12.6416 2.55629 14.0639 3.9786 14.1335 5.73329C14.1876 6.93143 13.5846 8.07547 12.572 8.72478Z" fill="#2379D1"/>
<path d="M23.982 12.2882C22.4746 12.2882 21.0291 12.5356 19.6764 13.0303C18.6406 14.2052 17.226 15.1792 15.5563 15.8208C14.5205 17.0576 13.9717 18.4954 13.9717 19.9718C13.9717 23.7749 17.6666 27.0524 22.5674 27.5858C22.6988 27.6012 22.8147 27.6785 22.8843 27.7945L24.353 30.5L26.1773 27.609C26.2391 27.5162 26.3319 27.4466 26.4478 27.4234C30.8925 26.5577 34 23.4966 34 19.9718C33.9922 15.7358 29.5011 12.2882 23.982 12.2882ZM18.4164 22.0202C17.427 22.0202 16.6231 21.2163 16.6231 20.2269C16.6231 19.2374 17.427 18.4335 18.4164 18.4335C19.4058 18.4335 20.2097 19.2374 20.2097 20.2269C20.2097 21.2086 19.4058 22.0202 18.4164 22.0202ZM23.9588 22.0202C22.9693 22.0202 22.1654 21.2163 22.1654 20.2269C22.1654 19.2374 22.9693 18.4335 23.9588 18.4335C24.9482 18.4335 25.7521 19.2374 25.7521 20.2269C25.7521 21.2086 24.9482 22.0202 23.9588 22.0202ZM29.5011 22.0202C28.5117 22.0202 27.7078 21.2163 27.7078 20.2269C27.7078 19.2374 28.5117 18.4335 29.5011 18.4335C30.4906 18.4335 31.2945 19.2374 31.2945 20.2269C31.2945 21.2086 30.4906 22.0202 29.5011 22.0202Z" fill="#DB7F00"/>
<path d="M30.4831 20.2191C30.4831 20.7602 30.0425 21.1931 29.5091 21.1931C28.968 21.1931 28.5352 20.7525 28.5352 20.2191C28.5352 19.678 28.9758 19.2451 29.5091 19.2451C30.0425 19.2451 30.4831 19.6857 30.4831 20.2191Z" fill="#DB7F00"/>
<path d="M24.9323 20.2191C24.9323 20.7602 24.4917 21.1931 23.9583 21.1931C23.4173 21.1931 22.9844 20.7525 22.9844 20.2191C22.9844 19.678 23.425 19.2451 23.9583 19.2451C24.4994 19.2451 24.9323 19.6857 24.9323 20.2191Z" fill="#DB7F00"/>
<path d="M19.3903 20.2191C19.3903 20.7602 18.9497 21.1931 18.4164 21.1931C17.8753 21.1931 17.4424 20.7525 17.4424 20.2191C17.4424 19.678 17.883 19.2451 18.4164 19.2451C18.9497 19.2451 19.3903 19.6857 19.3903 20.2191Z" fill="#DB7F00"/>
</svg>
