<svg width="26" height="33" viewBox="0 0 26 33" fill="none" xmlns="http://www.w3.org/2000/svg">
<path fill-rule="evenodd" clip-rule="evenodd" d="M0 2.75V30.25C0 30.9793 0.293494 31.6788 0.815917 32.1945C1.33834 32.7103 2.0469 33 2.78571 33H23.2143C23.9531 33 24.6617 32.7103 25.1841 32.1945C25.7065 31.6788 26 30.9793 26 30.25V2.75C26 2.02065 25.7065 1.32118 25.1841 0.805456C24.6617 0.289731 23.9531 0 23.2143 0H2.78571C2.0469 0 1.33834 0.289731 0.815917 0.805456C0.293494 1.32118 0 2.02065 0 2.75ZM13 8.25C13 8.00688 13.0978 7.77373 13.272 7.60182C13.4461 7.42991 13.6823 7.33333 13.9286 7.33333H21.3571C21.6034 7.33333 21.8396 7.42991 22.0137 7.60182C22.1879 7.77373 22.2857 8.00688 22.2857 8.25C22.2857 8.49312 22.1879 8.72627 22.0137 8.89818C21.8396 9.07009 21.6034 9.16667 21.3571 9.16667H13.9286C13.6823 9.16667 13.4461 9.07009 13.272 8.89818C13.0978 8.72627 13 8.49312 13 8.25ZM13.9286 11C13.6823 11 13.4461 11.0966 13.272 11.2685C13.0978 11.4404 13 11.6736 13 11.9167C13 12.1598 13.0978 12.3929 13.272 12.5648C13.4461 12.7368 13.6823 12.8333 13.9286 12.8333H21.3571C21.6034 12.8333 21.8396 12.7368 22.0137 12.5648C22.1879 12.3929 22.2857 12.1598 22.2857 11.9167C22.2857 11.6736 22.1879 11.4404 22.0137 11.2685C21.8396 11.0966 21.6034 11 21.3571 11H13.9286ZM13 20.1667C13 19.9236 13.0978 19.6904 13.272 19.5185C13.4461 19.3466 13.6823 19.25 13.9286 19.25H21.3571C21.6034 19.25 21.8396 19.3466 22.0137 19.5185C22.1879 19.6904 22.2857 19.9236 22.2857 20.1667C22.2857 20.4098 22.1879 20.6429 22.0137 20.8148C21.8396 20.9868 21.6034 21.0833 21.3571 21.0833H13.9286C13.6823 21.0833 13.4461 20.9868 13.272 20.8148C13.0978 20.6429 13 20.4098 13 20.1667ZM13.9286 22.9167C13.6823 22.9167 13.4461 23.0132 13.272 23.1852C13.0978 23.3571 13 23.5902 13 23.8333C13 24.0764 13.0978 24.3096 13.272 24.4815C13.4461 24.6534 13.6823 24.75 13.9286 24.75H21.3571C21.6034 24.75 21.8396 24.6534 22.0137 24.4815C22.1879 24.3096 22.2857 24.0764 22.2857 23.8333C22.2857 23.5902 22.1879 23.3571 22.0137 23.1852C21.8396 23.0132 21.6034 22.9167 21.3571 22.9167H13.9286ZM5.57143 20.1667V22.9167H8.35714V20.1667H5.57143ZM4.64286 18.3333H9.28571C9.53199 18.3333 9.76817 18.4299 9.94231 18.6018C10.1165 18.7737 10.2143 19.0069 10.2143 19.25V23.8333C10.2143 24.0764 10.1165 24.3096 9.94231 24.4815C9.76817 24.6534 9.53199 24.75 9.28571 24.75H4.64286C4.39658 24.75 4.1604 24.6534 3.98626 24.4815C3.81212 24.3096 3.71429 24.0764 3.71429 23.8333V19.25C3.71429 19.0069 3.81212 18.7737 3.98626 18.6018C4.1604 18.4299 4.39658 18.3333 4.64286 18.3333ZM10.8708 8.89808C11.0399 8.7252 11.1335 8.49365 11.1314 8.2533C11.1293 8.01295 11.0316 7.78304 10.8595 7.61308C10.6873 7.44313 10.4544 7.34672 10.2109 7.34463C9.96747 7.34254 9.73291 7.43494 9.55779 7.60192L6.5 10.6205L5.29936 9.43525C5.12423 9.26827 4.88967 9.17588 4.6462 9.17797C4.40273 9.18005 4.16983 9.27646 3.99767 9.44642C3.8255 9.61637 3.72785 9.84629 3.72573 10.0866C3.72362 10.327 3.81721 10.5585 3.98636 10.7314L6.5 13.2128L10.8708 8.89808Z" fill="#E71D36"/>
</svg>
