<svg width="42" height="42" viewBox="0 0 42 42" fill="none" xmlns="http://www.w3.org/2000/svg">
<circle cx="21" cy="21" r="21" fill="#FF405C"/>
<circle cx="21" cy="21" r="17" fill="#E20059"/>
<path d="M30.7426 24.7523C32.3993 26.4142 32.3937 29.1038 30.7342 30.76C29.9058 31.5867 28.8202 32 27.7346 32C26.6461 32 25.5577 31.5838 24.7294 30.7515L20.5 26.5133L20.4915 26.5048L16.2452 30.743C15.4168 31.5697 14.3312 31.983 13.2456 31.983C12.1572 31.983 11.0687 31.5668 10.2404 30.7345C8.58371 29.0726 8.58654 26.3859 10.2489 24.7297L14.4952 20.4915L10.2574 16.2448C8.60067 14.5858 8.60633 11.8962 10.2658 10.24C11.9254 8.58383 14.6139 8.58666 16.2706 10.2485L20.5 14.4867L20.5085 14.4952L24.7548 10.257C26.4143 8.60082 29.1029 8.60648 30.7596 10.2655C32.4163 11.9274 32.4135 14.6141 30.7511 16.2703L26.5048 20.5085L30.7426 24.7523Z" fill="white"/>
</svg>
