<svg width="33" height="33" viewBox="0 0 33 33" fill="none" xmlns="http://www.w3.org/2000/svg">
<path d="M20.2469 15.8882L17.2356 14.3826C15.9569 13.7432 14.7606 13.1451 14.7469 13.1382C14.5338 13.0351 14.2794 13.0488 14.08 13.1726C13.8737 13.2894 13.75 13.5094 13.75 13.7501V19.2501C13.75 19.4907 13.8737 19.7107 14.0731 19.8344C14.1831 19.9032 14.3137 19.9376 14.4375 19.9376C14.5406 19.9376 14.6506 19.9101 14.7469 19.8619L20.2469 17.1119C20.4806 16.9951 20.625 16.7613 20.625 16.5001C20.625 16.2388 20.4806 15.9982 20.2469 15.8882ZM15.125 18.1363V14.8638L18.3975 16.5001L15.125 18.1363Z" fill="#DB7F00"/>
<path d="M16.4995 8.9375C16.4652 8.9375 16.4308 8.9375 16.3895 8.9375C16.3758 8.9375 16.3552 8.9375 16.3414 8.9375C16.307 8.9375 16.2795 8.94438 16.2452 8.94438C8.55203 9.08875 2.49516 15.7575 2.23391 16.0394C2.00016 16.3006 2.00016 16.6925 2.23391 16.9537C2.49516 17.2494 8.68953 24.0625 16.4995 24.0625H16.5064H16.5133C16.5614 24.0625 16.6095 24.0625 16.6577 24.0625C16.692 24.0625 16.7195 24.0556 16.7539 24.0556C24.447 23.9113 30.5039 17.2425 30.7652 16.9606C30.9989 16.6994 30.9989 16.3075 30.7652 16.0463C30.5039 15.7506 24.3095 8.9375 16.4995 8.9375ZM3.70516 16.5C4.66078 15.5512 7.09453 13.3375 10.2845 11.8319C9.36328 13.0144 8.75828 14.575 8.71016 16.5412C8.82703 18.4937 9.45953 20.0406 10.3877 21.2163C7.14953 19.7106 4.67453 17.4556 3.70516 16.5ZM17.1045 22.66C16.9258 22.6669 16.747 22.6875 16.5614 22.6875C16.4789 22.6875 16.3895 22.6806 16.307 22.6806C16.1902 22.6806 16.0664 22.6669 15.9495 22.6669C13.0895 22.4469 10.3189 20.5219 10.0783 16.5206C10.1814 12.5538 13.0758 10.5875 15.8945 10.3469C16.0939 10.3331 16.2933 10.3125 16.4927 10.3125C16.5133 10.3125 16.527 10.3125 16.5477 10.3125C16.7333 10.3125 16.9258 10.3262 17.1114 10.34C19.9302 10.5875 22.6664 12.5056 22.9208 16.5138C22.8039 20.46 19.9164 22.4194 17.1045 22.66ZM22.7352 21.1613C23.6495 19.9856 24.2477 18.4456 24.2958 16.5138C24.2958 16.4931 24.2958 16.4725 24.2958 16.4588C24.1789 14.4994 23.5395 12.9456 22.6045 11.7769C25.8495 13.2825 28.3314 15.5375 29.3008 16.5C28.3383 17.4487 25.9183 19.6556 22.7352 21.1613Z" fill="#DB7F00"/>
</svg>
