<svg width="47" height="30" viewBox="0 0 47 30" fill="none" xmlns="http://www.w3.org/2000/svg">
<path d="M47 25.3846C47 26.6087 46.4498 27.7826 45.4704 28.6482C44.4911 29.5137 43.1628 30 41.7778 30H5.22222C3.8372 30 2.50891 29.5137 1.52955 28.6482C0.550197 27.7826 0 26.6087 0 25.3846V4.61538C0 3.39131 0.550197 2.21737 1.52955 1.35181C2.50891 0.486262 3.8372 0 5.22222 0H41.7778C43.1628 0 44.4911 0.486262 45.4704 1.35181C46.4498 2.21737 47 3.39131 47 4.61538V25.3846Z" fill="#141414"/>
<path d="M0 9.23071H47V20.7692H0V9.23071Z" fill="#EEEEEE"/>
<path d="M41.7778 0H5.22222C3.8372 0 2.50891 0.486262 1.52955 1.35181C0.550197 2.21737 0 3.39131 0 4.61538L0 9.23077H47V4.61538C47 3.39131 46.4498 2.21737 45.4704 1.35181C44.4911 0.486262 43.1628 0 41.7778 0Z" fill="#CE1225"/>
<path d="M19.2559 19.11C19.2559 19.11 19.2767 19.3985 19.5614 19.5427C19.5614 19.5427 19.4804 19.7597 19.7859 19.8854C20.0914 20.0112 21.1933 20.2097 23.1112 20.2097C25.029 20.2097 26.11 20.0297 26.3959 19.9027C26.6819 19.777 26.7014 19.4885 26.7014 19.4885C26.7014 19.4885 27.0069 19.3443 26.9874 19.1643C26.9665 18.9843 26.5591 18.7858 26.5591 18.7858C26.5591 18.7858 26.4573 18.5516 26.1714 18.4616C25.8855 18.3716 24.9677 18.8585 23.213 18.7858C21.4583 18.7143 20.4596 18.4789 20.1332 18.4974C19.8068 18.5158 19.6645 18.8043 19.6645 18.8043C19.6645 18.8043 19.2963 18.9485 19.2559 19.11Z" fill="#BF9300"/>
<path d="M19.4822 19.0926C19.4653 19.1999 19.7277 19.4353 19.7277 19.4353C19.7277 19.4353 19.7277 19.7053 19.9927 19.778C20.2577 19.8507 21.3387 20.0307 23.0934 20.0122C24.8481 19.9937 26.0923 19.9037 26.2346 19.7953C26.3769 19.6868 26.4996 19.4526 26.4996 19.4526C26.4996 19.4526 26.7855 19.2726 26.7646 19.1284C26.7437 18.9841 26.3364 18.8941 26.3364 18.8941C26.3364 18.8941 26.2215 18.6772 26.0857 18.5872C25.95 18.4972 25.0726 18.9472 23.1952 18.9472C21.3583 18.9472 20.2982 18.5503 20.1154 18.5687C19.9313 18.5872 19.8099 18.893 19.8099 18.893C19.8099 18.893 19.5031 18.9668 19.4822 19.0926Z" fill="#EEEEEE"/>
<path d="M27.2318 12.0969C27.2318 12.0969 27.1914 11.25 26.314 11.3573C25.4367 11.4658 25.3753 11.8442 24.4366 11.9342L24.2434 11.9504C24.0868 11.5753 24.0004 11.1801 23.9875 10.7804C23.9875 10.2392 24.1716 10.005 23.5384 9.73501C22.9065 9.46501 22.7838 9.71654 22.7838 9.71654C22.7838 9.71654 22.2942 9.49962 22.0697 9.66231C21.8451 9.825 21.9678 10.2392 22.0697 10.1135C22.1715 9.9877 22.5801 10.3477 22.5801 10.3477C22.7185 10.9465 22.3256 11.595 22.0566 11.9562C21.9639 11.9481 21.8895 11.9446 21.7851 11.9342C20.8464 11.8442 20.785 11.4658 19.9077 11.3573C19.0303 11.2489 18.9899 12.0969 18.9899 12.0969L18.6426 18.6415L19.3567 18.1546L19.3606 18.0773L20.8464 16.9108L21.0944 16.6915L20.4795 18.2804C20.4795 18.2804 19.5408 18.2262 19.8058 18.8931C19.8058 18.8931 19.9481 18.5146 20.1936 18.5862C20.439 18.6577 21.1519 18.8204 21.1519 18.8204L21.3973 19.1631L21.7028 18.9104L22.6611 18.8746C22.6611 18.8746 22.9666 18.9462 22.947 19.1815C23.0031 19.0803 23.0201 18.9656 22.9953 18.855L23.2838 18.8377C23.2528 18.9538 23.2685 19.0757 23.3282 19.1827C23.3073 18.9485 23.6141 18.8758 23.6141 18.8758L24.5724 18.9115L24.8792 19.1642L25.1247 18.8215C25.1247 18.8215 25.8375 18.6589 26.0816 18.5873C26.3258 18.5158 26.4694 18.8942 26.4694 18.8942C26.7344 18.2273 25.7957 18.2815 25.7957 18.2815L25.2095 16.7665L25.374 16.9119L26.8597 18.0785L26.8637 18.1558L27.5778 18.6427L27.2318 12.0969ZM23.1755 16.0639C21.7041 15.2608 21.5827 13.2335 21.5827 13.2335C21.5827 13.2335 22.4927 13.1919 23.1533 12.7823C23.7486 13.2496 24.7643 13.1965 24.7643 13.1965C24.7643 13.1965 24.6951 15.2319 23.1755 16.0639ZM26.5386 11.8454L25.2944 12.8908L25.0855 12.9646C24.8714 12.9715 23.8296 12.9739 23.1729 12.4581C22.3569 12.9635 21.2354 12.9992 21.2354 12.9992L21.0618 12.9381L19.6844 11.8454L19.3228 11.9769C19.3384 11.8465 19.4194 11.5535 19.8685 11.6112C20.6048 11.7046 20.909 12.0623 21.6845 12.1339L21.9039 12.1535L21.8268 12.2412C21.9469 12.2412 22.1245 12.21 22.2551 12.1846L22.4026 12.1973L22.336 12.4027C22.4404 12.375 22.5919 12.2954 22.7159 12.225L23.0554 12.2539L23.1324 12.3485L23.3909 12.2342L23.5645 12.2192C23.7147 12.2965 23.9288 12.3658 23.9288 12.3658L23.9692 12.1858C24.1533 12.2942 24.4588 12.2942 24.4588 12.2942C24.4236 12.2689 24.3883 12.2042 24.3518 12.1489L24.5398 12.1315C25.3153 12.06 25.6182 11.7023 26.3558 11.6089C26.8049 11.5523 26.8859 11.8442 26.9015 11.9746L26.5386 11.8454Z" fill="#BF9300"/>
<path d="M22.6839 16.0283L21.9489 18.4975L20.7256 18.2817L21.9907 15.1086L22.6839 16.0283ZM23.5965 16.0283L24.3302 18.4975L25.5548 18.2817L24.2898 15.1086L23.5965 16.0283Z" fill="#EEEEEE"/>
<path d="M21.8877 13.4317C21.8877 13.4317 21.9895 14.4771 22.5196 15.2883V13.1975C22.5196 13.1975 22.1723 13.3775 21.8877 13.4317ZM24.4374 13.4675C24.4374 13.4675 24.3356 14.5129 23.8056 15.324V13.2333C23.8042 13.2333 24.1515 13.4133 24.4374 13.4675Z" fill="#BF9300"/>
<path d="M22.1328 9.8979C22.1328 9.8979 22.2751 9.77213 22.6838 10.0237C22.9488 10.1875 23.1838 10.3121 23.1838 10.3121C23.1838 10.3121 23.3509 10.1564 23.5963 10.1921C23.8418 10.2279 23.7047 10.5291 23.7452 11.1591C23.7856 11.7902 24.0716 12.0602 24.0716 12.0602L23.7243 11.8802L23.7452 12.0787L23.3574 11.916L23.1733 12.1502L22.9893 11.8975L22.6916 12.0579L22.6015 11.8433L22.2542 12.006C22.2542 12.006 22.7647 11.4475 22.8052 10.8337C22.8169 10.6502 22.7647 10.2383 22.7647 10.2383C22.7647 10.2383 22.4396 9.87944 22.1328 9.8979Z" fill="#EEEEEE"/>
<path d="M20.2983 19.2187C20.0646 19.3422 20.156 19.4172 20.2983 19.4714C20.4406 19.5256 21.297 19.6168 23.0321 19.6514C24.8064 19.6872 25.9083 19.5072 26.0506 19.4345C26.1929 19.363 26.2138 19.236 25.9696 19.2003C25.7242 19.1645 24.5009 19.3445 23.0112 19.3445C21.1756 19.3456 20.4001 19.1645 20.2983 19.2187Z" fill="#BF9300"/>
</svg>
