<svg width="49" height="36" viewBox="0 0 49 36" fill="none" xmlns="http://www.w3.org/2000/svg">
<path d="M23.695 13.1282C23.7764 13.0459 23.8846 13 23.9973 13C24.1099 13 24.2182 13.0459 24.2996 13.1282L34.3633 23.285C34.4061 23.3282 34.4401 23.3801 34.4633 23.4376C34.4865 23.495 34.4984 23.5569 34.4984 23.6194L34.5 33.1519C34.5 33.6421 34.3157 34.1121 33.9877 34.4587C33.6596 34.8053 33.2147 35 32.7507 35H27.4974C27.2655 35 27.043 34.9026 26.879 34.7294C26.715 34.5561 26.6228 34.321 26.6228 34.076V26.2217C26.6228 26.0992 26.5767 25.9816 26.4947 25.895C26.4127 25.8084 26.3015 25.7597 26.1855 25.7597H21.8123C21.6963 25.7597 21.5851 25.8084 21.5031 25.895C21.4211 25.9816 21.375 26.0992 21.375 26.2217V34.076C21.375 34.321 21.2829 34.5561 21.1188 34.7294C20.9548 34.9026 20.7323 35 20.5004 35H15.2493C14.7853 35 14.3404 34.8053 14.0124 34.4587C13.6843 34.1121 13.5 33.6421 13.5 33.1519V23.6194C13.4999 23.5569 13.5119 23.495 13.5351 23.4376C13.5583 23.3801 13.5923 23.3282 13.635 23.285L23.695 13.1282Z" fill="#A5ABB9"/>
<path d="M10.297 21.3742L14.6603 17.2003V10.8665C14.6603 10.619 14.7586 10.3816 14.9337 10.2066C15.1087 10.0316 15.3461 9.93324 15.5936 9.93324H18.3936C18.6411 9.93324 18.8785 10.0316 19.0536 10.2066C19.2286 10.3816 19.3269 10.619 19.3269 10.8665V12.733L22.7056 9.50278C23.0218 9.18315 23.4919 9 24 9C24.5063 9 24.9753 9.18315 25.2915 9.50337L37.699 21.373C38.0618 21.723 38.1073 22.2987 37.7771 22.6778C37.6942 22.7735 37.5927 22.8513 37.4788 22.9066C37.3648 22.9618 37.2408 22.9932 37.1143 22.999C36.9878 23.0048 36.8615 22.9848 36.743 22.9402C36.6245 22.8956 36.5163 22.8274 36.425 22.7396L24.3208 11.1745C24.234 11.0914 24.1184 11.045 23.9983 11.045C23.8781 11.045 23.7625 11.0914 23.6757 11.1745L11.5704 22.7396C11.3921 22.9106 11.1532 23.0039 10.9062 22.9991C10.6592 22.9943 10.4242 22.8918 10.2526 22.714C9.89446 22.343 9.92422 21.7306 10.297 21.3742Z" fill="#A5ABB9"/>
</svg>
