<svg width="25" height="23" viewBox="0 0 25 23" fill="none" xmlns="http://www.w3.org/2000/svg">
<path d="M6.86201 21.2816C6.86201 22.0368 6.23569 22.6447 5.49885 22.6447H1.72253C0.96727 22.6447 0.359375 22.0368 0.359375 21.2816V10.5789C0.359375 9.82369 0.96727 9.21579 1.72253 9.21579H5.48043C6.23569 9.21579 6.84359 9.82369 6.84359 10.5789V21.2816H6.86201ZM22.8515 12.8816C23.662 13.5263 23.791 14.7053 23.1462 15.5158C22.8883 15.8474 22.5199 16.0684 22.1146 16.1605C22.9252 16.8053 23.0541 17.9842 22.4094 18.7763C22.1515 19.1079 21.7831 19.3289 21.3594 19.4395C22.1699 20.0842 22.2988 21.2632 21.6357 22.0737C21.2857 22.5158 20.7515 22.7737 20.1804 22.7737L9.58832 22.6632C8.83306 22.6632 8.22516 22.0553 8.22516 21.3V10.5789C8.22516 8.88421 13.641 5.77106 13.9173 4.09474C14.1015 2.98948 13.862 0.226318 14.5988 0.226318C15.8699 0.226318 17.4725 0.705266 17.4725 3.50527C17.4725 5.97369 15.8515 9.17895 15.8515 9.17895H22.4094C23.441 9.17895 24.2699 10.0079 24.2699 11.0395C24.3067 11.9421 23.6988 12.6974 22.8515 12.8816Z" fill="url(#paint0_linear_72_359)"/>
<defs>
<linearGradient id="paint0_linear_72_359" x1="3.74885" y1="6.63095" x2="20.4271" y2="23.3092" gradientUnits="userSpaceOnUse">
<stop stop-color="#42A5F5"/>
<stop offset="1" stop-color="#1565C0"/>
</linearGradient>
</defs>
</svg>
