<svg width="42" height="42" viewBox="0 0 42 42" fill="none" xmlns="http://www.w3.org/2000/svg">
<path d="M33 36.5835L32.6919 36.3265C31.818 35.5901 31.0531 34.7455 30.4178 33.8158C29.724 32.5326 29.3081 31.1313 29.1946 29.6941V25.461C29.2006 23.2036 28.3348 21.0218 26.7599 19.3256C25.1849 17.6294 23.0092 16.5354 20.6416 16.2494V15.144C20.6416 14.8406 20.5142 14.5496 20.2873 14.3351C20.0605 14.1205 19.7528 14 19.432 14C19.1113 14 18.8036 14.1205 18.5768 14.3351C18.3499 14.5496 18.2225 14.8406 18.2225 15.144V16.2665C15.8761 16.5732 13.7267 17.6737 12.1724 19.3643C10.6182 21.0548 9.76435 23.2208 9.76913 25.461V29.6941C9.65565 31.1313 9.2398 32.5326 8.54597 33.8158C7.9216 34.7432 7.16897 35.5876 6.30805 36.3265L6 36.5835V39H33V36.5835Z" fill="#A5ABB9"/>
<path d="M17 40C17.0835 40.5544 17.3827 41.0623 17.8422 41.4299C18.3017 41.7975 18.8906 42 19.5 42C20.1094 42 20.6983 41.7975 21.1578 41.4299C21.6173 41.0623 21.9165 40.5544 22 40H17Z" fill="#5A606F"/>
<path d="M33 18.5C33 21.5376 30.5376 24 27.5 24C24.4624 24 22 21.5376 22 18.5C22 15.4624 24.4624 13 27.5 13C30.5376 13 33 15.4624 33 18.5Z" fill="#F10000"/>
</svg>
