<svg width="32" height="32" viewBox="0 0 32 32" fill="none" xmlns="http://www.w3.org/2000/svg">
<g clip-path="url(#clip0_336_989)">
<path d="M27.7974 9.96434L16.0423 6.04598C15.8428 5.98459 15.6295 5.98459 15.43 6.04598L3.68717 9.96434H3.66268L3.54024 10.0256H3.52799L3.40554 10.099C3.40554 10.1113 3.3933 10.1113 3.38105 10.1235L3.28309 10.2092L3.19738 10.3072C3.19738 10.3194 3.18513 10.3194 3.18513 10.3317L3.11166 10.4419C3.11166 10.4541 3.11166 10.4541 3.09942 10.4664L3.05044 10.5766L3.01371 10.7113V10.748C3.00163 10.796 2.99749 10.8456 3.00146 10.895V20.6909C3.00146 20.9507 3.10467 21.1998 3.28838 21.3835C3.47209 21.5673 3.72125 21.6705 3.98105 21.6705C4.24086 21.6705 4.49002 21.5673 4.67373 21.3835C4.85744 21.1998 4.96064 20.9507 4.96064 20.6909V12.2541L9.07493 13.6256C8.30198 14.8628 7.89448 16.2933 7.89942 17.7521C7.89987 19.0788 8.23715 20.3837 8.87966 21.5445C9.52216 22.7053 10.4489 23.684 11.5729 24.3888C9.23705 25.2725 7.24292 26.8764 5.87901 28.9684C5.73999 29.1883 5.69289 29.4539 5.74786 29.7081C5.80283 29.9624 5.95547 30.1848 6.17289 30.3276C6.27959 30.3983 6.39925 30.4471 6.52495 30.4712C6.65065 30.4953 6.77989 30.4943 6.90517 30.4681C7.03046 30.4419 7.14929 30.3911 7.2548 30.3186C7.36031 30.2462 7.45039 30.1535 7.51983 30.046C8.40896 28.6764 9.62636 27.5508 11.0613 26.7715C12.4963 25.9923 14.1033 25.5841 15.7362 25.5841C17.369 25.5841 18.976 25.9923 20.411 26.7715C21.8459 27.5508 23.0633 28.6764 23.9525 30.046C24.0419 30.1818 24.1637 30.2932 24.3069 30.3701C24.4502 30.4471 24.6103 30.4872 24.7729 30.4868C24.9605 30.4888 25.1443 30.4332 25.2994 30.3276C25.5168 30.1848 25.6695 29.9624 25.7244 29.7081C25.7794 29.4539 25.7323 29.1883 25.5933 28.9684C24.2294 26.8764 22.2353 25.2725 19.8994 24.3888C21.0235 23.684 21.9501 22.7053 22.5927 21.5445C23.2352 20.3837 23.5724 19.0788 23.5729 17.7521C23.5778 16.2933 23.1703 14.8628 22.3974 13.6256L27.7974 11.8256C27.9934 11.7611 28.164 11.6365 28.285 11.4694C28.406 11.3023 28.4711 11.1013 28.4711 10.895C28.4711 10.6887 28.406 10.4876 28.285 10.3205C28.164 10.1534 27.9934 10.0288 27.7974 9.96434ZM21.6137 17.7521C21.6137 19.3109 20.9945 20.8059 19.8922 21.9082C18.79 23.0104 17.295 23.6297 15.7362 23.6297C14.1773 23.6297 12.6824 23.0104 11.5801 21.9082C10.4778 20.8059 9.8586 19.3109 9.8586 17.7521C9.86097 16.4979 10.2595 15.2765 10.9974 14.2623L15.43 15.7439C15.6289 15.8093 15.8434 15.8093 16.0423 15.7439L20.4749 14.2623C21.2128 15.2765 21.6113 16.4979 21.6137 17.7521ZM20.4749 12.2052H20.4627L15.7362 13.7848L11.0096 12.2052H10.9974L7.07901 10.895L15.7362 8.00516L24.3933 10.895L20.4749 12.2052Z" fill="#A5ABB9"/>
</g>
<defs>
<clipPath id="clip0_336_989">
<rect width="32" height="32" fill="white"/>
</clipPath>
</defs>
</svg>
