<svg width="31" height="31" viewBox="0 0 31 31" fill="none" xmlns="http://www.w3.org/2000/svg">
<path d="M28.9364 28.129H11.1491C10.9492 26.9767 9.94443 26.0966 8.7359 26.0966C7.52738 26.0966 6.52264 26.9767 6.32272 28.129H2.78027C2.54709 28.129 2.3584 28.3177 2.3584 28.5508C2.3584 28.784 2.54709 28.9727 2.78027 28.9727H6.32351C6.52544 30.1226 7.52918 31.0001 8.7359 31.0001C9.94263 31.0001 10.9464 30.1226 11.1483 28.9727H28.9364C29.1696 28.9727 29.3583 28.784 29.3583 28.5508C29.3583 28.3177 29.1697 28.129 28.9364 28.129ZM8.7359 30.1563C7.8522 30.1563 7.13347 29.4394 7.12875 28.5568C7.12875 28.5547 7.12997 28.553 7.12997 28.5508C7.12997 28.5481 7.12849 28.5459 7.12844 28.5432C7.1313 27.6591 7.85108 26.9404 8.7359 26.9404C9.62252 26.9404 10.3439 27.6617 10.3439 28.5483C10.3439 29.435 9.62252 30.1563 8.7359 30.1563Z" fill="#68A9FF"/>
<path d="M8.73632 27.787C8.50315 27.787 8.31445 27.9757 8.31445 28.2089V28.8878C8.31445 29.121 8.50315 29.3097 8.73632 29.3097C8.96949 29.3097 9.15819 29.121 9.15819 28.8878V28.2089C9.15819 27.9756 8.96954 27.787 8.73632 27.787Z" fill="#68A9FF"/>
<path d="M27.6499 6.68903H27.4937V4.42187C27.4937 4.1887 27.305 4 27.0719 4H18.8457C17.5611 4 16.4409 4.71619 15.8605 5.77033C15.28 4.71619 14.1598 4 12.8748 4H4.64865C4.41548 4 4.22678 4.1887 4.22678 4.42187V6.68903H4.07144C3.12674 6.68903 2.3584 7.45737 2.3584 8.40207V22.1806C2.3584 23.1248 3.12674 23.8932 4.07144 23.8932H13.5422C13.7416 24.9907 14.7044 25.8254 15.8584 25.8254C17.0148 25.8254 17.9793 24.9907 18.1791 23.8932H27.6499C28.5921 23.8932 29.3584 23.1248 29.3584 22.1806V8.40207C29.3584 7.45737 28.5921 6.68903 27.6499 6.68903ZM18.8457 4.84373H26.65V20.0571H18.8457C17.8248 20.0571 16.9073 20.5091 16.2823 21.2235V7.41163C16.2823 5.99561 17.4322 4.84373 18.8457 4.84373ZM12.8748 4.84373C14.2883 4.84373 15.4386 5.99566 15.4386 7.41163V21.2239C14.8136 20.5091 13.8961 20.0571 12.8748 20.0571H5.07051C5.07051 16.207 5.07051 8.68871 5.07051 4.84373H12.8748ZM28.5146 22.1805C28.5146 22.6597 28.1265 23.0494 27.6499 23.0494H17.7951C17.562 23.0494 17.3733 23.2381 17.3733 23.4713C17.3733 24.3039 16.6939 24.9816 15.8584 24.9816C15.0258 24.9816 14.348 24.3039 14.348 23.4713C14.348 23.2381 14.1593 23.0494 13.9262 23.0494H4.07144C3.59228 23.0494 3.20213 22.6597 3.20213 22.1805V8.40207C3.20213 7.92292 3.59228 7.53276 4.07144 7.53276H4.22678V20.479C4.22678 20.7122 4.41548 20.9009 4.64865 20.9009H12.8748C14.2883 20.9009 15.4386 22.0528 15.4386 23.4688C15.4386 23.7019 15.6273 23.8906 15.8605 23.8906C16.0936 23.8906 16.2823 23.7019 16.2823 23.4688C16.2823 22.0528 17.4322 20.9009 18.8457 20.9009H27.0719C27.305 20.9009 27.4937 20.7122 27.4937 20.479V7.53276H27.6499C28.1265 7.53276 28.5146 7.92292 28.5146 8.40207V22.1805Z" fill="#68A9FF"/>
<path d="M9.42675 7.97862H11.0796C11.3128 7.97862 11.5015 7.78992 11.5015 7.55675C11.5015 7.32358 11.3128 7.13489 11.0796 7.13489H9.42675C9.19358 7.13489 9.00488 7.32358 9.00488 7.55675C9.00488 7.78992 9.19358 7.97862 9.42675 7.97862Z" fill="#68A9FF"/>
<path d="M7.34765 10.4246H13.16C13.3931 10.4246 13.5818 10.2359 13.5818 10.0027C13.5818 9.76957 13.3931 9.58087 13.16 9.58087H7.34765C7.11448 9.58087 6.92578 9.76957 6.92578 10.0027C6.92578 10.2359 7.11448 10.4246 7.34765 10.4246Z" fill="#68A9FF"/>
<path d="M7.34765 12.8702H13.16C13.3931 12.8702 13.5818 12.6815 13.5818 12.4483C13.5818 12.2151 13.3931 12.0264 13.16 12.0264H7.34765C7.11448 12.0264 6.92578 12.2151 6.92578 12.4483C6.92578 12.6815 7.11448 12.8702 7.34765 12.8702Z" fill="#68A9FF"/>
<path d="M9.42675 14.473C9.19358 14.473 9.00488 14.6617 9.00488 14.8948C9.00488 15.128 9.19358 15.3167 9.42675 15.3167H11.0796C11.3128 15.3167 11.5015 15.128 11.5015 14.8948C11.5015 14.6617 11.3128 14.473 11.0796 14.473H9.42675Z" fill="#68A9FF"/>
<path d="M7.34765 17.7627H13.16C13.3931 17.7627 13.5818 17.574 13.5818 17.3409C13.5818 17.1077 13.3931 16.919 13.16 16.919H7.34765C7.11448 16.919 6.92578 17.1077 6.92578 17.3409C6.92578 17.574 7.11448 17.7627 7.34765 17.7627Z" fill="#68A9FF"/>
<path d="M20.6074 7.97862H22.3242C22.5573 7.97862 22.746 7.78992 22.746 7.55675C22.746 7.32358 22.5573 7.13489 22.3242 7.13489H20.6074C20.3742 7.13489 20.1855 7.32358 20.1855 7.55675C20.1855 7.78992 20.3742 7.97862 20.6074 7.97862Z" fill="#68A9FF"/>
<path d="M18.5596 10.4246H24.3722C24.6054 10.4246 24.7941 10.2359 24.7941 10.0027C24.7941 9.76957 24.6054 9.58087 24.3722 9.58087H18.5596C18.3264 9.58087 18.1377 9.76957 18.1377 10.0027C18.1377 10.2359 18.3263 10.4246 18.5596 10.4246Z" fill="#68A9FF"/>
<path d="M18.5596 12.8702H24.3722C24.6054 12.8702 24.7941 12.6815 24.7941 12.4483C24.7941 12.2151 24.6054 12.0264 24.3722 12.0264H18.5596C18.3264 12.0264 18.1377 12.2151 18.1377 12.4483C18.1377 12.6815 18.3263 12.8702 18.5596 12.8702Z" fill="#68A9FF"/>
<path d="M20.6074 14.473C20.3742 14.473 20.1855 14.6617 20.1855 14.8948C20.1855 15.128 20.3742 15.3167 20.6074 15.3167H22.3242C22.5573 15.3167 22.746 15.128 22.746 14.8948C22.746 14.6617 22.5573 14.473 22.3242 14.473H20.6074Z" fill="#68A9FF"/>
<path d="M18.5596 17.7627H24.3722C24.6054 17.7627 24.7941 17.574 24.7941 17.3409C24.7941 17.1077 24.6054 16.919 24.3722 16.919H18.5596C18.3264 16.919 18.1377 17.1077 18.1377 17.3409C18.1376 17.574 18.3263 17.7627 18.5596 17.7627Z" fill="#68A9FF"/>
</svg>
