<svg width="30" height="29" viewBox="0 0 30 29" fill="none" xmlns="http://www.w3.org/2000/svg">
<g clip-path="url(#clip0_72_412)">
<path d="M29.667 14.5C29.667 22.5082 23.1752 29 15.167 29C7.15876 29 0.666992 22.5082 0.666992 14.5C0.666992 6.49177 7.15876 0 15.167 0C23.1752 0 29.667 6.49177 29.667 14.5Z" fill="#017296"/>
<path d="M15.667 9.43396V8.81132C15.667 8.74875 15.7192 8.69811 15.7837 8.69811H22.7989C22.8634 8.69811 22.9157 8.74875 22.9157 8.81132V9.43396C22.9157 9.49654 22.8634 9.54717 22.7989 9.54717H15.7837C15.7194 9.54717 15.667 9.49654 15.667 9.43396ZM24.5502 21.1509H15.7837C15.7192 21.1509 15.667 21.2016 15.667 21.2642V21.8868C15.667 21.9494 15.7192 22 15.7837 22H24.5502C24.6148 22 24.667 21.9494 24.667 21.8868V21.2642C24.667 21.2016 24.6148 21.1509 24.5502 21.1509ZM15.7837 20.3019H22.7989C22.8634 20.3019 22.9157 20.2513 22.9157 20.1887V19.566C22.9157 19.5035 22.8634 19.4528 22.7989 19.4528H15.7837C15.7192 19.4528 15.667 19.5035 15.667 19.566V20.1887C15.667 20.2513 15.7194 20.3019 15.7837 20.3019ZM24.5502 17.7547H15.7837C15.7192 17.7547 15.667 17.8054 15.667 17.8679V18.4906C15.667 18.5531 15.7192 18.6038 15.7837 18.6038H24.5502C24.6148 18.6038 24.667 18.5531 24.667 18.4906V17.8679C24.667 17.8054 24.6148 17.7547 24.5502 17.7547ZM24.5502 10.3962H15.7837C15.7192 10.3962 15.667 10.4469 15.667 10.5094V11.1321C15.667 11.1946 15.7192 11.2453 15.7837 11.2453H24.5502C24.6148 11.2453 24.667 11.1946 24.667 11.1321V10.5094C24.667 10.4469 24.6148 10.3962 24.5502 10.3962ZM24.5502 7H15.7837C15.7192 7 15.667 7.05063 15.667 7.11321V7.73585C15.667 7.79842 15.7192 7.84906 15.7837 7.84906H24.5502C24.6148 7.84906 24.667 7.79842 24.667 7.73585V7.11321C24.667 7.05063 24.6148 7 24.5502 7Z" fill="#6CAAC9"/>
<path d="M9.16699 15.7761C6.68569 15.7761 4.66699 17.6207 4.66699 19.8881C4.66699 22.1554 6.68569 24 9.16699 24C11.6483 24 13.667 22.1554 13.667 19.8881C13.667 17.6207 11.6483 15.7761 9.16699 15.7761ZM9.16699 23.1493C7.19897 23.1493 5.59803 21.6864 5.59803 19.8881C5.59803 18.0898 7.19897 16.6269 9.16699 16.6269C11.135 16.6269 12.736 18.0898 12.736 19.8881C12.736 21.6864 11.135 23.1493 9.16699 23.1493ZM9.16699 13.2239C11.6483 13.2239 13.667 11.3793 13.667 9.11194C13.667 6.84461 11.6483 5 9.16699 5C6.68569 5 4.66699 6.84461 4.66699 9.11194C4.66699 11.3793 6.68569 13.2239 9.16699 13.2239ZM9.16699 5.85075C11.135 5.85075 12.736 7.31363 12.736 9.11194C12.736 10.9102 11.135 12.3731 9.16699 12.3731C7.19897 12.3731 5.59803 10.9102 5.59803 9.11194C5.59803 7.31363 7.19897 5.85075 9.16699 5.85075Z" fill="#88B9D3"/>
<path d="M28.5055 4.27943L26.9464 5.83852C26.7313 6.05383 26.3823 6.05383 26.167 5.83852L23.8285 3.5C23.6132 3.28469 23.6132 2.93566 23.8285 2.72057L25.3876 1.16148C25.6027 0.946172 25.9517 0.946172 26.167 1.16148L28.5055 3.5C28.7208 3.71531 28.7208 4.06434 28.5055 4.27943Z" fill="#024C67"/>
<path d="M15.6291 4.92539L9.67107 10.6885C9.5696 10.7866 9.4051 10.7869 9.30364 10.6885L6.70495 8.17539C6.65434 8.12643 6.65434 8.04675 6.70495 7.99779L7.43981 7.28672C7.49066 7.23776 7.57279 7.23776 7.62364 7.28672L9.39521 9.00041C9.44582 9.04959 9.52819 9.04959 9.57881 9.00041L14.7104 4.03672C14.761 3.98776 14.8434 3.98776 14.894 4.03672L15.6288 4.74757C15.6797 4.79675 15.6797 4.87643 15.6291 4.92539ZM8.82301 19.0549C8.60191 19.2685 8.4779 19.5583 8.4779 19.8605V20.8861C8.4779 20.949 8.53059 21 8.5957 21H9.65588C9.96832 21 10.2679 20.88 10.4887 20.6662L11.8096 19.3885L10.1439 17.7772L8.82301 19.0549Z" fill="#FDED32"/>
<path d="M27.667 5.07396L14.365 18.376C14.2132 18.5277 14.02 18.6311 13.8097 18.6732L12.255 18.9841C11.9879 19.0376 11.712 18.954 11.5194 18.7615L10.9053 18.1473C10.713 17.955 10.6294 17.6789 10.6829 17.412L10.9936 15.8573C11.0357 15.647 11.1393 15.4536 11.2908 15.302L24.5928 2L27.667 5.07396Z" fill="#FC9302"/>
<path d="M27.667 5.14141L13.6628 18.379C13.503 18.53 13.2996 18.6329 13.0781 18.6747L11.4414 18.9842C11.1602 19.0374 10.8697 18.9542 10.667 18.7626L11.0845 16.7904C11.1287 16.5809 11.2375 16.3886 11.3973 16.2376L25.4016 3L27.667 5.14141Z" fill="#FDBF43"/>
<path d="M13.667 19.2774L12.764 20.1805C12.3115 20.6331 11.5778 20.6331 11.1251 20.1805L10.3058 21L8.66699 19.3612L9.48652 18.5419C9.03387 18.0892 9.03387 17.3555 9.48652 16.903L10.3896 16L13.667 19.2774Z" fill="#024C67"/>
</g>
<defs>
<clipPath id="clip0_72_412">
<rect width="29" height="29" fill="white" transform="translate(0.666992)"/>
</clipPath>
</defs>
</svg>
